<?xml version="1.0" standalone="no"?>
<!DOCTYPE svg PUBLIC "-//W3C//DTD SVG 20010904//EN"
 "http://www.w3.org/TR/2001/REC-SVG-20010904/DTD/svg10.dtd">
<svg version="1.0" xmlns="http://www.w3.org/2000/svg"
 width="512.000000pt" height="512.000000pt" viewBox="0 0 512.000000 512.000000"
 preserveAspectRatio="xMidYMid meet">
<metadata>
Created by potrace 1.10, written by Peter Selinger 2001-2011
</metadata>
<g transform="translate(0.000000,512.000000) scale(0.050000,-0.050000)"
fill="#6d70df" stroke="none">
<path d="M4387 9639 c-424 -85 -621 -585 -368 -934 l56 -78 -48 -42 c-97 -86
-30 -305 93 -305 44 0 60 -119 60 -460 0 -137 6 -364 13 -503 l13 -252 147
-84 147 -84 147 84 147 84 13 252 c7 139 13 366 13 503 0 352 15 460 64 460
116 0 179 200 96 305 l-40 51 69 114 c263 436 -125 989 -622 889z"/>
<path d="M3440 8595 c-380 -191 -581 -554 -523 -945 95 -637 439 -991 1533
-1580 610 -328 773 -589 541 -866 -40 -47 -49 -82 -53 -204 l-5 -147 119 -76
c155 -100 165 -98 297 47 399 441 344 1027 -133 1408 -169 135 -600 408 -644
408 -23 0 -557 316 -662 391 -356 256 -593 663 -542 934 13 71 142 295 274
475 152 208 55 284 -202 155z"/>
<path d="M5287 8630 c-20 -52 9 -115 123 -268 200 -269 241 -376 213 -558 -55
-356 -296 -644 -782 -934 -95 -58 -121 -82 -100 -94 16 -10 115 -67 219 -129
105 -61 204 -124 222 -139 48 -43 70 -36 224 79 724 538 906 1360 405 1829
-196 183 -490 303 -524 214z"/>
<path d="M2759 8225 c-599 -420 -1669 -874 -2345 -995 -307 -55 -350 -130
-147 -258 191 -122 628 -242 966 -266 92 -7 167 -19 167 -27 0 -20 -222 -73
-375 -90 -502 -56 582 -448 1260 -456 140 -2 255 -9 255 -16 0 -18 -242 -76
-379 -90 -437 -46 254 -334 806 -336 l238 -1 43 130 c48 148 136 287 269 425
50 52 87 97 82 100 -443 305 -690 616 -822 1036 -67 212 -67 617 -2 774 25 58
42 105 39 105 -3 0 -27 -16 -55 -35z"/>
<path d="M6224 8158 c66 -160 66 -563 -1 -777 -119 -380 -331 -667 -700 -949
l-127 -97 89 -93 c131 -135 219 -275 267 -422 l43 -130 238 1 c344 2 757 108
917 237 75 60 66 68 -92 94 -192 30 -398 79 -398 95 0 7 115 14 255 16 397 4
813 92 1122 238 296 139 332 196 138 218 -153 17 -375 70 -375 90 0 8 75 20
167 27 342 24 809 154 982 273 181 125 136 198 -154 250 -683 121 -1666 537
-2361 1000 l-56 37 46 -108z"/>
<path d="M3648 6107 c-525 -547 -280 -1259 572 -1662 501 -237 682 -329 742
-380 159 -133 158 -351 -2 -465 -93 -66 -91 -288 4 -354 l64 -45 71 43 c392
236 504 606 295 975 -108 190 -255 296 -804 581 -622 323 -811 595 -602 869
47 61 52 86 52 235 l-1 166 -126 75 c-156 93 -136 96 -265 -38z"/>
<path d="M4240 5592 c6 -203 15 -373 20 -378 30 -28 247 -157 352 -210 l122
-62 13 194 c7 107 13 267 13 356 l0 161 -85 60 c-114 80 -405 247 -431 247 -8
0 -9 -166 -4 -368z"/>
<path d="M3710 4355 c-278 -308 -269 -741 19 -984 131 -110 220 -161 567 -320
604 -277 915 -566 1067 -991 64 -180 87 -156 72 76 -29 456 -363 854 -1045
1243 -507 289 -606 482 -352 684 138 109 48 249 -238 372 -7 3 -47 -33 -90
-80z"/>
<path d="M4280 3965 c1 -315 -8 -298 218 -426 l196 -112 13 192 c7 105 13 234
13 287 l0 95 -155 72 c-85 39 -184 84 -220 99 l-65 29 0 -236z"/>
<path d="M3886 2825 c-229 -261 -326 -483 -326 -750 0 -178 19 -180 80 -7 76
214 170 358 335 512 189 178 209 380 36 380 -4 0 -60 -61 -125 -135z"/>
<path d="M4315 2475 c8 -562 31 -642 186 -642 142 0 167 64 176 444 l7 338
-67 50 c-68 52 -263 155 -291 155 -9 0 -14 -155 -11 -345z"/>
</g>
</svg>
